<svg xmlns="http://www.w3.org/2000/svg" width="500" height="500" viewBox="0 0 500 500"><g fill="none"><path d="M0 0h500v500h-500z"/><path fill="#FFF" d="M217.375 264.305h37.842l-20.046-59.716-17.796 59.716"/><path fill="#FFF" d="M431.992 317.729l-56.233-125.998 29.938-7.518v-88.645h-310.385v88.594l29.539 7.504-56.992 126.129-32.859 8.019v78.325h431v-78.437z"/><path fill="#D50A0A" d="M378.261 372.971l-19.436-14.734-19.384 14.027 7.519-22.221-18.302-14.682h22.752l7.415-21.205 7.418 21.205h23.647l-18.809 14.906 7.18 22.703zm-79.323-98.369h22.718l7.461-21.22 7.372 21.22h23.675l-18.83 14.917 7.206 22.692-19.423-14.719-19.436 14.036 7.555-22.245-18.298-14.682zm-28.976-62.4h22.757l7.424-21.213 7.396 21.213h23.66l-18.839 14.927 7.18 22.688-19.397-14.729-19.423 13.984 7.527-22.202-18.285-14.669zm-20.828-24.692l7.53-22.18-18.218-14.675h22.699l7.443-21.241 7.383 21.241h23.683l-18.858 14.895 7.198 22.714-19.406-14.734-19.453 13.98zm-31.758 76.796l17.796-59.716 20.046 59.716h-37.842zm137.2-82.863l35.965-9.035v-61.701h-280.072v61.684l35.631 9.052-67.464 149.308-28.478 6.949v51.301h171.527v-51.301l-24.306-6.915 7.782-21.864h60.521l7.241 21.907-22.421 6.872v51.301h200.348v-51.301l-29.636-6.949-66.637-149.308z"/><path fill="#FFF" d="M280.795 165.549l7.198 22.714-19.406-14.734-19.453 13.98 7.53-22.18-18.218-14.675h22.699l7.443-21.241 7.383 21.241h23.683l-18.858 14.895zm19.348 69.539l-19.423 13.984 7.527-22.202-18.285-14.669h22.757l7.424-21.213 7.396 21.213h23.66l-18.839 14.927 7.18 22.688-19.397-14.729zm28.974 62.405l-19.436 14.036 7.555-22.245-18.298-14.682h22.718l7.461-21.22 7.372 21.22h23.675l-18.83 14.917 7.206 22.692-19.423-14.719zm37.126 37.87h23.647l-18.809 14.906 7.18 22.703-19.436-14.734-19.384 14.027 7.519-22.221-18.302-14.682h22.752l7.415-21.205 7.418 21.205z"/></g></svg>