<svg xmlns="http://www.w3.org/2000/svg" width="500" height="500" viewBox="0 0 500 500"><g fill="none"><path d="M0 0h500v500h-500z"/><path fill="#FFF" d="M276.127 95.338v68.563l-65.7-68.563h-165.427v83.011l29.028 6.106v134.612l-27.907 6.928v78.554h189.703v-67.909l67.166 67.95h127.018v-220.539l24.992-5.903v-82.81z"/><path fill="#013369" d="M300.744 283.954l7.439 23.488-20.08-15.205-20.067 14.415 7.767-22.965-18.901-15.205h23.495l7.706-21.979 7.679 21.979h24.43l-19.469 15.471zm47.035 19.514l7.692 22.036h24.469l-19.493 15.385 7.439 23.545-20.106-15.248-20.061 14.436 7.827-22.947-18.928-15.172h23.483l7.679-22.036zm-119.417-68.251l-20.094 14.436 7.778-22.945-18.864-15.19h23.47l7.71-22.014 7.622 22.014h24.493l-19.481 15.387 7.39 23.539-20.024-15.227zm-47.105-65.299l7.446 23.537-20.088-15.207-20.067 14.458 7.79-23.018-18.897-15.164h23.477l7.698-21.971 7.655 21.971h24.508l-19.52 15.393zm110.042-3.809l20.248 6.138v50.549l-107.594-112.285h-143.781v55.521l29.028 6.104v158.797l-27.907 6.93v51.511h159.359v-51.388l-23.844-6.996v-55.292l112.516 113.697h105.511v-217.357l24.992-5.901v-55.628h-148.529v55.597z"/><path fill="#FFF" d="M176.27 154.525h24.508l-19.52 15.393 7.446 23.537-20.088-15.207-20.067 14.458 7.79-23.018-18.897-15.164h23.477l7.698-21.971 7.655 21.971zm84.208 56.993l-19.481 15.387 7.39 23.539-20.024-15.227-20.094 14.436 7.778-22.945-18.864-15.19h23.47l7.71-22.014 7.622 22.014h24.493zm27.626 34.986l7.679 21.979h24.43l-19.469 15.471 7.439 23.488-20.08-15.205-20.067 14.415 7.767-22.965-18.901-15.205h23.495l7.706-21.979zm47.441 94.173l-18.928-15.172h23.483l7.679-22.036 7.692 22.036h24.469l-19.493 15.385 7.439 23.545-20.106-15.248-20.061 14.436 7.827-22.947z"/></g></svg>